<?xml version="1.0" encoding="utf-8"?>
<!-- Generator: Adobe Illustrator 17.0.0, SVG Export Plug-In . SVG Version: 6.00 Build 0)  -->
<!DOCTYPE svg PUBLIC "-//W3C//DTD SVG 1.1//EN" "http://www.w3.org/Graphics/SVG/1.1/DTD/svg11.dtd">
<svg version="1.1" id="Layer_1" xmlns="http://www.w3.org/2000/svg" xmlns:xlink="http://www.w3.org/1999/xlink" x="0px" y="0px"
	 width="278.596px" height="63.982px" viewBox="150.769 362.435 278.596 63.982"
	 enable-background="new 150.769 362.435 278.596 63.982" xml:space="preserve">
<path fill="#FFFFFF" d="M255.651,419.311c-13.601,0-24.689-11.088-24.689-24.691c0-13.605,11.088-24.691,24.689-24.691
	c8.3,0,14.83,3.333,19.523,9.114l-8.23,6.735c-2.926-3.673-6.122-5.373-11.294-5.373c-7.821,0-13.738,6.461-13.738,14.215
	c0,7.756,5.917,14.217,13.738,14.217c3.947,0,6.939-0.68,9.319-2.381v-7.631h-11.63l4.624-8.85h17.549v21.447
	C270.754,416.862,263.816,419.311,255.651,419.311z"/>
<path fill="#FFFFFF" d="M331.228,394.62c0-13.605,11.09-24.691,24.69-24.691c13.605,0,24.692,11.086,24.692,24.691
	c0,13.604-11.087,24.691-24.692,24.691C342.318,419.311,331.228,408.224,331.228,394.62z M369.66,394.62
	c0-7.754-5.918-14.215-13.742-14.215c-7.821,0-13.739,6.461-13.739,14.215c0,7.756,5.918,14.217,13.739,14.217
	C363.742,408.837,369.66,402.376,369.66,394.62z"/>
<path fill="#FFFFFF" d="M388.482,418.767v-48.294h10.886v48.294H388.482z"/>
<path fill="#FFFFFF" d="M397.805,394.686l16.869-24.214h12.514l-16.935,24.353l19.112,23.941h-13.467L397.805,394.686z"/>
<path fill="#FFFFFF" d="M314.972,398.226c5.577-2.107,9.251-7.414,9.251-13.401c0-7.89-6.465-14.352-14.351-14.352h-18.233v19.38
	h-5.471l-4.277,9.146h9.748v19.768h10.816v-19.588h0.204l14.967,19.588h12.989L314.972,398.226z M308.646,389.995h-6.191v-9.59
	h6.191c2.923,0,5.032,2.176,5.032,4.828S311.569,389.995,308.646,389.995z"/>
<rect x="200.584" y="387.523" fill="#2B2E7E" width="0.003" height="0.002"/>
<path fill="#29ABE2" d="M217.43,389.311c-2.917-0.045-4.706-0.998-6.803-2.981c-1.718-1.638-3.319-4.054-5-6.743
	c-0.003,0.005-0.007,0.011-0.01,0.016c-1.572,2.461-3.191,5.23-5.031,7.92c0,0.002,0.001,0.002,0.001,0.002
	c0.001,0.001,0.001,0.001,0.001,0.002c1.664,2.383,3.585,4.713,6.062,6.623c2.713-1.92,6.175-3.186,10.065-3.164
	c0.482-0.002,0.948,0.033,1.415,0.068v-1.797C217.895,389.274,217.682,389.31,217.43,389.311z"/>
<path fill="none" d="M167.614,388.462c-0.024-0.015-0.053-0.049-0.077-0.068c0.026,0.035,0.05,0.074,0.077,0.11
	c0.023-0.032,0.043-0.064,0.065-0.095C167.658,388.424,167.635,388.45,167.614,388.462z"/>
<path fill="#FFFFFF" d="M167.614,388.462c0.021-0.012,0.043-0.038,0.065-0.053c1.844-2.51,3.38-5.128,4.867-7.537
	c0.03-0.065,0.064-0.133,0.094-0.193c-1.571-2.463-3.145-5.234-5.026-7.926c-1.88,2.691-3.455,5.463-5.026,7.926
	c0.049,0.092,0.107,0.201,0.159,0.298c1.463,2.376,2.979,4.946,4.79,7.417C167.561,388.413,167.59,388.447,167.614,388.462z"/>
<path fill="#29ABE2" d="M162.747,380.977c-0.052-0.085-0.107-0.175-0.159-0.259c-0.425,0.667-0.852,1.316-1.284,1.928
	c-1.499,2.162-3.013,3.893-4.553,4.984c-1.561,1.086-3.055,1.66-5.265,1.682c-0.25-0.004-0.481-0.023-0.716-0.041v1.715
	c4.275-0.035,7.936,1.516,10.797,3.705c0.984-0.684,1.888-1.439,2.693-2.248c1.245-1.236,2.343-2.57,3.354-3.939
	c-0.027-0.036-0.05-0.075-0.077-0.11C165.725,385.923,164.21,383.353,162.747,380.977z"/>
<path fill="#E90E8B" d="M195.556,379.607c-0.004-0.007-0.007-0.015-0.012-0.02c-1.68,2.69-3.28,5.105-4.999,6.742
	c-2.099,1.983-3.887,2.936-6.801,2.981c-2.21-0.021-3.707-0.596-5.269-1.682c-1.539-1.092-3.056-2.822-4.551-4.984
	c-0.433-0.611-0.859-1.261-1.284-1.928c-0.031,0.051-0.063,0.103-0.093,0.154c-1.487,2.409-3.023,5.027-4.867,7.537
	c-0.023,0.031-0.043,0.062-0.065,0.095c1.01,1.368,2.108,2.702,3.353,3.942c0.805,0.805,1.71,1.561,2.693,2.244
	c2.863-2.189,6.52-3.74,10.795-3.705c3.891-0.022,7.356,1.244,10.067,3.164c2.477-1.91,4.398-4.24,6.061-6.623
	c0-0.001,0.001-0.001,0.001-0.002c0,0,0.001,0,0.002-0.002C198.747,384.833,197.128,382.067,195.556,379.607z"/>
<g>
	<path fill="#E90E8B" d="M163.548,396.403c-0.604-0.603-1.275-1.172-1.982-1.713c-2.748,1.908-6.159,3.209-10.081,3.176
		c-0.242,0-0.477-0.02-0.716-0.027v1.697c2.213,0.023,3.707,0.596,5.266,1.684c1.54,1.092,3.058,2.822,4.556,4.986
		c0.674,0.951,1.332,1.986,1.995,3.062c1.572-2.461,3.147-5.234,5.027-7.924C166.412,399.626,165.094,397.94,163.548,396.403z"/>
	<path fill="#E90E8B" d="M190.545,414.882c-2.099,1.98-3.887,2.936-6.801,2.979c-2.21-0.02-3.707-0.594-5.269-1.682
		c-1.539-1.094-3.056-2.82-4.551-4.986c-0.433-0.611-0.858-1.26-1.284-1.926c-1.534,2.482-3.113,5.197-5.026,7.789
		c1.011,1.369,2.108,2.703,3.353,3.941c3.027,3.025,7.362,5.42,12.624,5.42c0.048,0,0.104,0,0.152,0
		c3.973,0.02,7.5-1.299,10.239-3.279c2.757-1.978,4.814-4.502,6.6-7.066c0.001-0.002,0.001-0.004,0.002-0.004
		c-1.843-2.693-3.465-5.467-5.04-7.932C193.865,410.827,192.264,413.241,190.545,414.882z"/>
	<path fill="#E90E8B" d="M216.715,399.536c0.509,0.006,0.973,0.047,1.415,0.111v-1.812c-0.186,0.008-0.363,0.031-0.551,0.031
		c-0.049,0-0.1,0-0.149,0c-3.977,0.018-7.504-1.295-10.241-3.279c-0.191-0.137-0.355-0.295-0.539-0.438
		c-0.055,0.037-0.115,0.074-0.169,0.111c-2.409,1.729-4.266,3.877-5.894,6.098c0.236,0.32,0.483,0.641,0.71,0.967
		c1.569,2.293,2.975,4.641,4.33,6.811c1.427-2.234,2.816-4.213,4.292-5.621C212.013,400.54,213.803,399.583,216.715,399.536z"/>
	<path fill="#29ABE2" d="M161.304,411.192c-1.499,2.166-3.013,3.893-4.553,4.986c-1.561,1.088-3.055,1.662-5.265,1.682
		c-0.25-0.004-0.481-0.023-0.716-0.039v8.568c0.239,0.008,0.474,0.027,0.716,0.027c5.326,0.045,9.719-2.357,12.774-5.42
		c1.246-1.238,2.344-2.572,3.354-3.941c-1.913-2.592-3.493-5.307-5.027-7.787C162.162,409.933,161.736,410.581,161.304,411.192z"/>
	<path fill="#29ABE2" d="M200.588,416.071c1.789,2.564,3.845,5.088,6.601,7.066c2.737,1.98,6.264,3.299,10.241,3.279
		c0.049,0,0.1,0,0.149,0c0.188,0,0.366-0.025,0.551-0.031v-8.578c-0.234,0.016-0.448,0.053-0.7,0.053
		c-2.917-0.043-4.706-0.998-6.803-2.979c-1.718-1.641-3.319-4.055-5-6.746c-1.576,2.465-3.197,5.238-5.041,7.932
		C200.586,416.067,200.587,416.069,200.588,416.071z"/>
	<path fill="#29ABE2" d="M174.636,406.206c1.494-2.164,3.011-3.895,4.552-4.986c1.562-1.088,3.055-1.66,5.268-1.684
		c2.914,0.047,4.705,1.004,6.796,2.978c1.478,1.408,2.867,3.389,4.294,5.621c1.355-2.17,2.762-4.518,4.332-6.811
		c0.227-0.326,0.473-0.646,0.709-0.967c-1.627-2.221-3.487-4.369-5.896-6.098c-0.054-0.037-0.114-0.074-0.169-0.111
		c-0.185,0.143-0.348,0.301-0.539,0.438c-2.739,1.984-6.267,3.297-10.239,3.279c-0.049,0-0.104,0-0.152,0
		c-3.863,0-7.22-1.295-9.932-3.176c-0.708,0.541-1.379,1.109-1.985,1.713c-1.543,1.537-2.861,3.223-4.061,4.941
		c1.881,2.69,3.456,5.461,5.027,7.922C173.304,408.192,173.962,407.157,174.636,406.206z"/>
</g>
<g>
	<path fill="#E90E8B" d="M163.548,367.854c-3.053-3.06-7.449-5.464-12.779-5.418v8.552c2.213,0.021,3.707,0.595,5.266,1.683
		c1.54,1.096,3.058,2.823,4.556,4.984c0.674,0.953,1.332,1.989,1.997,3.062c1.571-2.462,3.146-5.234,5.025-7.924
		C166.412,371.075,165.094,369.392,163.548,367.854z"/>
</g>
<g>
	<path fill="#FFFFFF" d="M161.566,394.69c-2.861-2.189-6.521-3.74-10.797-3.705v6.853c0.239,0.008,0.474,0.027,0.716,0.027
		C155.408,397.899,158.819,396.599,161.566,394.69z"/>
	<path fill="#FFFFFF" d="M206.65,394.149c0.185,0.143,0.348,0.301,0.539,0.438c2.737,1.984,6.264,3.297,10.241,3.279
		c0.049,0,0.1,0,0.149,0c0.188,0,0.366-0.023,0.551-0.031v-6.781c-0.466-0.035-0.932-0.07-1.415-0.068
		C212.825,390.964,209.363,392.229,206.65,394.149z"/>
</g>
<path fill="#FFFFFF" d="M194.53,394.149c-2.711-1.92-6.176-3.186-10.067-3.164c-4.276-0.035-7.933,1.516-10.795,3.705
	c2.712,1.881,6.069,3.176,9.932,3.176c0.048,0,0.104,0,0.152,0c3.973,0.018,7.5-1.295,10.239-3.279
	C194.183,394.45,194.345,394.292,194.53,394.149z"/>
<g>
	<path fill="#FFFFFF" d="M162.586,409.263c1.535,2.48,3.114,5.195,5.027,7.787c1.913-2.592,3.493-5.307,5.026-7.789
		c-1.571-2.461-3.146-5.232-5.027-7.922C165.733,404.028,164.159,406.802,162.586,409.263z"/>
	<path fill="#FFFFFF" d="M200.585,416.064c1.844-2.695,3.465-5.469,5.041-7.934c-1.356-2.17-2.761-4.518-4.33-6.811
		c-0.227-0.326-0.474-0.645-0.71-0.967c-0.236,0.322-0.482,0.641-0.709,0.967c-1.57,2.293-2.977,4.641-4.332,6.812
		C197.12,410.595,198.742,413.368,200.585,416.064z"/>
</g>
<path fill="none" d="M200.585,371.854c0.05,0.068,0.124,0.147,0.2,0.227c-0.067-0.09-0.133-0.182-0.199-0.271
	c-0.063,0.086-0.124,0.171-0.188,0.256C200.461,371.995,200.537,371.921,200.585,371.854z"/>
<path fill="#FFFFFF" d="M200.786,372.081c-0.077-0.08-0.15-0.158-0.2-0.227c-0.049,0.066-0.124,0.141-0.187,0.211
	c-0.176,0.236-0.354,0.473-0.521,0.711c-1.531,2.234-2.904,4.518-4.228,6.643c-0.027,0.062-0.067,0.125-0.093,0.188
	c1.572,2.46,3.19,5.226,5.029,7.915c1.84-2.689,3.459-5.459,5.031-7.92c-0.006-0.023-0.018-0.048-0.025-0.072
	c-1.345-2.156-2.739-4.48-4.295-6.754C201.133,372.542,200.957,372.311,200.786,372.081z"/>
<path fill="#E90E8B" d="M216.715,362.436c-3.97-0.023-7.498,1.293-10.235,3.273c-2.409,1.732-4.266,3.878-5.894,6.1
	c0.066,0.09,0.132,0.182,0.199,0.271c0.172,0.23,0.347,0.461,0.51,0.695c1.556,2.273,2.951,4.598,4.295,6.754
	c0.012,0.018,0.023,0.038,0.035,0.057c1.427-2.233,2.816-4.214,4.292-5.621c2.095-1.976,3.885-2.931,6.797-2.977
	c0.509,0.005,0.973,0.046,1.415,0.109v-8.593C217.664,362.47,217.198,362.433,216.715,362.436z"/>
<path fill="#29ABE2" d="M200.398,372.065c0.064-0.085,0.125-0.17,0.188-0.256c-1.627-2.222-3.487-4.367-5.896-6.1
	c-2.734-1.98-6.267-3.297-10.236-3.273c-5.332-0.046-9.723,2.358-12.78,5.418c-1.543,1.537-2.861,3.221-4.061,4.939
	c1.881,2.689,3.455,5.462,5.026,7.924c0.665-1.073,1.322-2.109,1.996-3.062c1.494-2.161,3.011-3.889,4.552-4.984
	c1.562-1.088,3.055-1.661,5.268-1.683c2.914,0.047,4.705,1.002,6.796,2.977c1.477,1.407,2.866,3.389,4.293,5.622
	c0.034-0.056,0.071-0.114,0.105-0.169c1.324-2.125,2.696-4.408,4.228-6.643C200.044,372.538,200.223,372.302,200.398,372.065z"/>
</svg>
