<?xml version="1.0" encoding="utf-8"?>
<!-- Generator: Adobe Illustrator 17.0.0, SVG Export Plug-In . SVG Version: 6.00 Build 0)  -->
<!DOCTYPE svg PUBLIC "-//W3C//DTD SVG 1.1//EN" "http://www.w3.org/Graphics/SVG/1.1/DTD/svg11.dtd">
<svg version="1.1" id="Layer_1" xmlns="http://www.w3.org/2000/svg" xmlns:xlink="http://www.w3.org/1999/xlink" x="0px" y="0px"
	 width="67.36px" height="63.981px" viewBox="272.371 364.714 67.36 63.981" enable-background="new 272.371 364.714 67.36 63.981"
	 xml:space="preserve">
<g>
	<g>
		<g>
			<g>
				<rect x="322.185" y="389.801" fill="#2B2E7E" width="0.003" height="0.003"/>
				<path fill="#29ABE2" d="M339.031,391.59c-2.917-0.045-4.706-0.999-6.803-2.982c-1.718-1.638-3.319-4.054-5-6.744
					c-0.003,0.005-0.007,0.011-0.01,0.017c-1.572,2.461-3.191,5.23-5.031,7.92c0.001,0.001,0.001,0.001,0.001,0.001
					c0.001,0.002,0.001,0.002,0.001,0.003c1.664,2.382,3.585,4.712,6.062,6.622c2.713-1.919,6.175-3.185,10.065-3.164
					c0.482-0.002,0.948,0.033,1.414,0.069v-1.797C339.497,391.552,339.283,391.588,339.031,391.59z"/>
				<g>
					<path fill="none" d="M289.216,390.741c-0.024-0.015-0.053-0.05-0.077-0.069c0.026,0.036,0.05,0.075,0.077,0.111
						c0.023-0.032,0.043-0.063,0.065-0.094C289.259,390.702,289.237,390.728,289.216,390.741z"/>
					<path fill="#2B2E7E" d="M289.216,390.741c0.021-0.013,0.044-0.039,0.065-0.053c1.844-2.51,3.38-5.128,4.867-7.538
						c0.03-0.064,0.064-0.133,0.094-0.193c-1.571-2.462-3.145-5.233-5.026-7.925c-1.88,2.691-3.455,5.462-5.026,7.925
						c0.049,0.092,0.107,0.202,0.159,0.298c1.463,2.376,2.979,4.946,4.791,7.416C289.163,390.691,289.192,390.726,289.216,390.741z"
						/>
					<path fill="#29ABE2" d="M284.348,383.255c-0.052-0.085-0.106-0.174-0.159-0.258c-0.425,0.666-0.852,1.315-1.284,1.927
						c-1.5,2.163-3.013,3.894-4.553,4.985c-1.561,1.086-3.055,1.661-5.265,1.682c-0.251-0.004-0.481-0.023-0.716-0.041v1.714
						c4.275-0.035,7.936,1.516,10.797,3.705c0.984-0.683,1.888-1.439,2.693-2.247c1.245-1.237,2.343-2.571,3.354-3.939
						c-0.027-0.036-0.05-0.075-0.077-0.111C287.327,388.201,285.811,385.631,284.348,383.255z"/>
					<path fill="#E90E8B" d="M317.158,381.886c-0.003-0.007-0.007-0.014-0.012-0.02c-1.68,2.69-3.28,5.104-5,6.742
						c-2.099,1.983-3.887,2.937-6.801,2.982c-2.21-0.022-3.706-0.596-5.269-1.682c-1.539-1.091-3.056-2.822-4.551-4.985
						c-0.433-0.611-0.859-1.26-1.284-1.927c-0.031,0.05-0.063,0.103-0.093,0.153c-1.487,2.41-3.023,5.028-4.867,7.538
						c-0.022,0.031-0.043,0.062-0.065,0.094c1.01,1.369,2.108,2.702,3.353,3.942c0.805,0.806,1.709,1.562,2.693,2.244
						c2.863-2.189,6.52-3.74,10.795-3.705c3.891-0.022,7.356,1.245,10.067,3.164c2.478-1.91,4.398-4.24,6.061-6.622
						c0-0.001,0-0.001,0-0.003c0,0,0,0,0.001-0.001C320.348,387.111,318.73,384.345,317.158,381.886z"/>
				</g>
			</g>
			<g>
				<path fill="#E90E8B" d="M285.15,398.682c-0.604-0.604-1.275-1.173-1.982-1.714c-2.748,1.908-6.159,3.21-10.081,3.177
					c-0.242,0-0.478-0.02-0.716-0.027v1.697c2.213,0.022,3.707,0.595,5.266,1.684c1.54,1.092,3.058,2.821,4.556,4.985
					c0.674,0.952,1.331,1.987,1.995,3.062c1.572-2.461,3.147-5.233,5.027-7.924C288.014,401.905,286.696,400.219,285.15,398.682z"/>
				<path fill="#E90E8B" d="M312.146,417.16c-2.099,1.98-3.887,2.936-6.801,2.979c-2.21-0.02-3.706-0.595-5.269-1.683
					c-1.539-1.093-3.056-2.82-4.551-4.986c-0.433-0.611-0.858-1.259-1.284-1.925c-1.534,2.481-3.113,5.197-5.026,7.788
					c1.011,1.369,2.108,2.703,3.353,3.941c3.027,3.026,7.362,5.42,12.625,5.42c0.048,0,0.103,0,0.152,0
					c3.973,0.02,7.501-1.299,10.239-3.279c2.757-1.978,4.814-4.502,6.6-7.066c0-0.001,0.001-0.003,0.002-0.003
					c-1.843-2.693-3.465-5.468-5.039-7.933C315.466,413.106,313.866,415.52,312.146,417.16z"/>
				<path fill="#E90E8B" d="M338.317,401.815c0.509,0.006,0.973,0.047,1.414,0.11v-1.812c-0.185,0.008-0.363,0.032-0.551,0.032
					c-0.049,0-0.1,0-0.149,0c-3.977,0.017-7.504-1.296-10.241-3.279c-0.191-0.138-0.354-0.295-0.539-0.439
					c-0.055,0.038-0.115,0.074-0.169,0.112c-2.409,1.728-4.266,3.876-5.894,6.097c0.236,0.321,0.483,0.642,0.71,0.968
					c1.569,2.292,2.975,4.64,4.33,6.81c1.427-2.233,2.816-4.213,4.292-5.62C333.614,402.818,335.404,401.862,338.317,401.815z"/>
				<path fill="#29ABE2" d="M282.905,413.47c-1.5,2.166-3.013,3.894-4.553,4.986c-1.561,1.088-3.055,1.663-5.265,1.683
					c-0.251-0.004-0.481-0.023-0.716-0.04v8.568c0.239,0.008,0.474,0.027,0.716,0.027c5.326,0.046,9.719-2.357,12.774-5.42
					c1.246-1.238,2.344-2.572,3.354-3.941c-1.913-2.591-3.493-5.307-5.027-7.787C283.764,412.211,283.338,412.859,282.905,413.47z"
					/>
				<path fill="#29ABE2" d="M322.189,418.349c1.789,2.565,3.845,5.089,6.601,7.066c2.737,1.98,6.264,3.299,10.241,3.279
					c0.049,0,0.1,0,0.149,0c0.188,0,0.366-0.024,0.551-0.031v-8.578c-0.234,0.017-0.448,0.053-0.7,0.054
					c-2.917-0.044-4.706-0.999-6.803-2.979c-1.718-1.64-3.319-4.055-5-6.746c-1.576,2.465-3.197,5.239-5.041,7.933
					C322.188,418.346,322.189,418.348,322.189,418.349z"/>
				<path fill="#29ABE2" d="M296.237,408.484c1.494-2.164,3.011-3.894,4.552-4.985c1.562-1.089,3.055-1.661,5.268-1.684
					c2.914,0.047,4.705,1.003,6.796,2.979c1.478,1.407,2.867,3.388,4.294,5.62c1.355-2.17,2.762-4.518,4.331-6.81
					c0.227-0.326,0.473-0.647,0.71-0.968c-1.628-2.221-3.487-4.368-5.896-6.097c-0.054-0.038-0.114-0.074-0.169-0.112
					c-0.185,0.144-0.348,0.301-0.539,0.439c-2.739,1.983-6.267,3.296-10.239,3.279c-0.049,0-0.104,0-0.152,0
					c-3.863,0-7.22-1.295-9.932-3.177c-0.708,0.541-1.379,1.109-1.985,1.714c-1.543,1.537-2.861,3.223-4.062,4.94
					c1.881,2.69,3.456,5.462,5.027,7.923C294.906,410.471,295.564,409.436,296.237,408.484z"/>
			</g>
		</g>
		<g>
			<path fill="#E90E8B" d="M285.15,370.133c-3.053-3.06-7.449-5.464-12.779-5.418v8.552c2.213,0.021,3.707,0.595,5.266,1.682
				c1.54,1.096,3.058,2.824,4.556,4.985c0.674,0.952,1.332,1.989,1.997,3.062c1.571-2.462,3.146-5.235,5.025-7.925
				C288.014,373.354,286.696,371.669,285.15,370.133z"/>
		</g>
	</g>
	<g>
		<path fill="#2B2E7E" d="M283.168,396.968c-2.861-2.189-6.522-3.74-10.797-3.705v6.854c0.239,0.008,0.474,0.027,0.716,0.027
			C277.009,400.178,280.42,398.876,283.168,396.968z"/>
		<path fill="#2B2E7E" d="M328.251,396.427c0.185,0.144,0.348,0.301,0.539,0.439c2.737,1.983,6.264,3.296,10.241,3.279
			c0.049,0,0.1,0,0.149,0c0.188,0,0.366-0.024,0.551-0.032v-6.78c-0.466-0.036-0.932-0.071-1.414-0.069
			C334.426,393.242,330.965,394.508,328.251,396.427z"/>
	</g>
	<path fill="#2B2E7E" d="M316.132,396.427c-2.711-1.919-6.176-3.185-10.067-3.164c-4.276-0.035-7.933,1.516-10.795,3.705
		c2.712,1.882,6.069,3.177,9.932,3.177c0.048,0,0.103,0,0.152,0c3.973,0.017,7.501-1.296,10.239-3.279
		C315.784,396.728,315.947,396.571,316.132,396.427z"/>
	<g>
		<path fill="#2B2E7E" d="M284.188,411.54c1.535,2.48,3.114,5.196,5.027,7.787c1.914-2.591,3.493-5.307,5.026-7.788
			c-1.571-2.461-3.146-5.233-5.027-7.922C287.335,406.307,285.76,409.081,284.188,411.54z"/>
		<path fill="#2B2E7E" d="M322.186,418.341c1.844-2.694,3.465-5.469,5.041-7.934c-1.355-2.17-2.761-4.518-4.33-6.81
			c-0.227-0.326-0.474-0.645-0.71-0.968c-0.236,0.323-0.482,0.642-0.71,0.968c-1.57,2.292-2.976,4.64-4.331,6.812
			C318.722,412.873,320.344,415.647,322.186,418.341z"/>
	</g>
	<g>
		<path fill="none" d="M322.187,374.132c0.05,0.068,0.123,0.147,0.2,0.227c-0.067-0.09-0.133-0.181-0.199-0.271
			c-0.063,0.085-0.124,0.171-0.188,0.256C322.062,374.273,322.138,374.199,322.187,374.132z"/>
		<path fill="#2B2E7E" d="M322.387,374.359c-0.077-0.08-0.15-0.158-0.2-0.227c-0.049,0.067-0.125,0.141-0.187,0.212
			c-0.176,0.236-0.354,0.472-0.522,0.711c-1.531,2.235-2.904,4.518-4.227,6.643c-0.027,0.061-0.067,0.124-0.093,0.188
			c1.572,2.46,3.19,5.225,5.029,7.915c1.84-2.69,3.46-5.459,5.031-7.92c-0.006-0.023-0.018-0.048-0.025-0.073
			c-1.345-2.156-2.739-4.48-4.295-6.753C322.734,374.82,322.559,374.59,322.387,374.359z"/>
		<path fill="#E90E8B" d="M338.317,364.714c-3.97-0.023-7.498,1.294-10.235,3.274c-2.409,1.732-4.266,3.877-5.894,6.099
			c0.066,0.09,0.132,0.181,0.199,0.271c0.172,0.231,0.347,0.461,0.51,0.696c1.556,2.273,2.951,4.598,4.295,6.753
			c0.012,0.018,0.023,0.039,0.035,0.057c1.427-2.233,2.816-4.213,4.292-5.621c2.095-1.975,3.885-2.93,6.797-2.977
			c0.509,0.005,0.973,0.046,1.414,0.109v-8.593C339.265,364.748,338.799,364.71,338.317,364.714z"/>
		<path fill="#29ABE2" d="M322,374.344c0.064-0.085,0.125-0.171,0.188-0.256c-1.628-2.222-3.487-4.367-5.896-6.099
			c-2.734-1.98-6.267-3.297-10.236-3.274c-5.332-0.045-9.723,2.359-12.78,5.418c-1.543,1.537-2.861,3.221-4.062,4.939
			c1.881,2.69,3.455,5.462,5.026,7.925c0.665-1.074,1.322-2.11,1.996-3.062c1.494-2.162,3.011-3.889,4.552-4.985
			c1.562-1.087,3.055-1.661,5.268-1.682c2.914,0.047,4.705,1.002,6.796,2.977c1.477,1.408,2.866,3.39,4.293,5.622
			c0.034-0.055,0.071-0.115,0.105-0.168c1.324-2.126,2.696-4.408,4.227-6.643C321.646,374.816,321.824,374.58,322,374.344z"/>
	</g>
</g>
</svg>
